<svg width="28" height="28" viewBox="0 0 28 28" fill="none" xmlns="http://www.w3.org/2000/svg">
<circle cx="13.9277" cy="13.5855" r="13.5855" fill="#F9F9F7" fill-opacity="0.12"/>
<path d="M13.9294 8.20062C15.6845 8.20062 15.8924 8.20719 16.5857 8.23881C17.0026 8.24391 17.4155 8.32046 17.8066 8.46513C18.0901 8.57449 18.3476 8.742 18.5625 8.9569C18.7774 9.1718 18.9449 9.42932 19.0543 9.71287C19.199 10.1039 19.2755 10.5168 19.2806 10.9337C19.3119 11.6271 19.3188 11.8349 19.3188 13.5901C19.3188 15.3452 19.3122 15.5531 19.2806 16.2464C19.2755 16.6633 19.199 17.0763 19.0543 17.4673C18.9449 17.7508 18.7774 18.0083 18.5625 18.2232C18.3476 18.4381 18.0901 18.6056 17.8066 18.715C17.4155 18.8597 17.0026 18.9362 16.5857 18.9413C15.8927 18.9726 15.6848 18.9795 13.9294 18.9795C12.1739 18.9795 11.966 18.9729 11.273 18.9413C10.8561 18.9362 10.4432 18.8597 10.0522 18.715C9.7686 18.6056 9.51109 18.4381 9.29619 18.2232C9.08129 18.0083 8.91377 17.7508 8.80442 17.4673C8.65975 17.0763 8.5832 16.6633 8.5781 16.2464C8.54679 15.5531 8.53991 15.3452 8.53991 13.5901C8.53991 11.8349 8.54648 11.6271 8.5781 10.9337C8.5832 10.5168 8.65975 10.1039 8.80442 9.71287C8.91377 9.42932 9.08129 9.1718 9.29619 8.9569C9.51109 8.742 9.7686 8.57449 10.0522 8.46513C10.4432 8.32046 10.8561 8.24391 11.273 8.23881C11.9663 8.20751 12.1742 8.20062 13.9294 8.20062ZM13.9294 7.01611C12.1451 7.01611 11.9203 7.02363 11.2191 7.05556C10.6735 7.06641 10.1337 7.16971 9.62268 7.36107C9.18428 7.52625 8.7872 7.78509 8.45915 8.11955C8.12439 8.44772 7.86532 8.84503 7.70005 9.28371C7.50868 9.79476 7.40538 10.3346 7.39453 10.8802C7.36323 11.5807 7.35571 11.8055 7.35571 13.5898C7.35571 15.374 7.36323 15.5988 7.39515 16.3C7.40601 16.8456 7.50931 17.3854 7.70067 17.8964C7.86577 18.3351 8.12462 18.7324 8.45915 19.0606C8.78738 19.3951 9.18468 19.654 9.62331 19.8191C10.1344 20.0104 10.6742 20.1137 11.2198 20.1246C11.9209 20.1559 12.1448 20.164 13.93 20.164C15.7152 20.164 15.939 20.1565 16.6402 20.1246C17.1858 20.1137 17.7256 20.0104 18.2367 19.8191C18.6732 19.6498 19.0696 19.3914 19.4006 19.0602C19.7315 18.7291 19.9897 18.3325 20.1587 17.8958C20.35 17.3848 20.4533 16.8449 20.4642 16.2993C20.4955 15.5988 20.503 15.374 20.503 13.5898C20.503 11.8055 20.4955 11.5807 20.4636 10.8795C20.4527 10.3339 20.3494 9.79413 20.158 9.28308C19.9929 8.84446 19.7341 8.44715 19.3996 8.11892C19.0713 7.78439 18.674 7.52554 18.2354 7.36045C17.7243 7.16909 17.1845 7.06578 16.6389 7.05493C15.9384 7.02363 15.7136 7.01611 13.9294 7.01611Z" fill="white"/>
<path d="M13.9277 10.2178C13.2601 10.2178 12.6074 10.4158 12.0523 10.7867C11.4971 11.1576 11.0645 11.6848 10.809 12.3017C10.5535 12.9185 10.4866 13.5972 10.6169 14.2521C10.7471 14.9069 11.0686 15.5084 11.5407 15.9805C12.0128 16.4526 12.6143 16.7741 13.2692 16.9044C13.924 17.0346 14.6027 16.9678 15.2196 16.7123C15.8364 16.4568 16.3636 16.0241 16.7345 15.4689C17.1055 14.9138 17.3034 14.2611 17.3034 13.5935C17.3034 12.6982 16.9478 11.8396 16.3147 11.2065C15.6816 10.5734 14.823 10.2178 13.9277 10.2178ZM13.9277 15.7847C13.4943 15.7847 13.0707 15.6562 12.7104 15.4154C12.35 15.1746 12.0692 14.8324 11.9033 14.432C11.7375 14.0316 11.6941 13.5911 11.7786 13.166C11.8632 12.741 12.0719 12.3505 12.3783 12.0441C12.6847 11.7376 13.0752 11.5289 13.5002 11.4444C13.9253 11.3598 14.3659 11.4032 14.7663 11.5691C15.1667 11.7349 15.5089 12.0158 15.7497 12.3761C15.9904 12.7365 16.1189 13.1601 16.1189 13.5935C16.1189 14.1746 15.8881 14.732 15.4771 15.1429C15.0662 15.5538 14.5089 15.7847 13.9277 15.7847Z" fill="white"/>
<path d="M17.4483 10.8711C17.8839 10.8711 18.2371 10.518 18.2371 10.0823C18.2371 9.64663 17.8839 9.29346 17.4483 9.29346C17.0126 9.29346 16.6594 9.64663 16.6594 10.0823C16.6594 10.518 17.0126 10.8711 17.4483 10.8711Z" fill="white"/>
</svg>
